<svg width="26" height="26" viewBox="0 0 26 26" fill="none" xmlns="http://www.w3.org/2000/svg">
<g opacity="0.7" clip-path="url(#clip0_7038_20223)">
<path d="M3.41723 23.6481C2.83158 23.6481 2.33005 23.4394 1.91265 23.022C1.49524 22.6046 1.28689 22.1034 1.2876 21.5185V8.74068C1.2876 8.15504 1.4963 7.65351 1.91371 7.2361C2.33112 6.81869 2.83229 6.61034 3.41723 6.61105H6.7714L8.10241 5.17355C8.29763 4.96059 8.53295 4.792 8.80839 4.66777C9.08382 4.54354 9.37167 4.48142 9.67195 4.48142H14.0654C14.3671 4.48142 14.6201 4.58365 14.8246 4.78809C15.029 4.99254 15.1309 5.24525 15.1302 5.54624V7.67587C15.1302 7.97757 15.2324 8.23064 15.4369 8.43508C15.6413 8.63953 15.894 8.74139 16.195 8.74068H18.3246V10.8703C18.3246 11.172 18.4269 11.4251 18.6313 11.6295C18.8357 11.834 19.0885 11.9358 19.3895 11.9351H21.5191C21.8208 11.9351 22.0738 12.0374 22.2783 12.2418C22.4827 12.4462 22.5846 12.699 22.5839 12.9999V21.5185C22.5839 22.1041 22.3752 22.6056 21.9578 23.023C21.5404 23.4405 21.0392 23.6488 20.4543 23.6481H3.41723ZM11.9357 19.9212C13.2668 19.9212 14.3983 19.4552 15.3304 18.5231C16.2624 17.5911 16.7281 16.4599 16.7274 15.1296C16.7274 13.7986 16.2614 12.667 15.3293 11.7349C14.3972 10.8029 13.2661 10.3372 11.9357 10.3379C10.6047 10.3379 9.47319 10.8039 8.54112 11.736C7.60905 12.6681 7.14337 13.7993 7.14408 15.1296C7.14408 16.4606 7.61012 17.5921 8.54218 18.5242C9.47425 19.4563 10.6054 19.922 11.9357 19.9212ZM20.4543 7.67587C20.4543 7.08779 19.9775 6.61105 19.3895 6.61105V6.61105C19.0878 6.61105 18.8347 6.50883 18.6302 6.30439C18.4258 6.09994 18.3239 5.84723 18.3246 5.54624C18.3246 5.24454 18.4269 4.99147 18.6313 4.78703C18.8357 4.58258 19.0885 4.48072 19.3895 4.48142V4.48142C19.9775 4.48142 20.4543 4.00469 20.4543 3.41661V3.41661C20.4543 3.11491 20.5565 2.86184 20.7609 2.6574C20.9654 2.45295 21.2181 2.35109 21.5191 2.3518C21.8208 2.3518 22.0738 2.45402 22.2783 2.65846C22.4827 2.86291 22.5846 3.11562 22.5839 3.41661V3.41661C22.5839 4.00469 23.0606 4.48142 23.6487 4.48142V4.48142C23.9504 4.48142 24.2035 4.58365 24.4079 4.78809C24.6124 4.99254 24.7142 5.24525 24.7135 5.54624C24.7135 5.84794 24.6113 6.10101 24.4069 6.30545C24.2024 6.5099 23.9497 6.61176 23.6487 6.61105V6.61105C23.0606 6.61105 22.5839 7.08779 22.5839 7.67587V7.67587C22.5839 7.97757 22.4817 8.23064 22.2772 8.43508C22.0728 8.63953 21.8201 8.74139 21.5191 8.74068C21.2174 8.74068 20.9643 8.63846 20.7599 8.43402C20.5554 8.22957 20.4536 7.97686 20.4543 7.67587V7.67587Z" stroke="#FFFFFF" stroke-width="1.7037"/>
</g>
<defs>
<clipPath id="clip0_7038_20223">
<rect width="25.5556" height="25.5556" fill="white" transform="translate(0.222656 0.222168)"/>
</clipPath>
</defs>
</svg>
