<svg width="19" height="20" viewBox="0 0 19 20" fill="none" xmlns="http://www.w3.org/2000/svg">
<path d="M16.0308 3.90625H2.96826C2.85016 3.90625 2.73689 3.95564 2.65338 4.04354C2.56987 4.13145 2.52295 4.25068 2.52295 4.375C2.52295 4.49932 2.56987 4.61855 2.65338 4.70646C2.73689 4.79436 2.85016 4.84375 2.96826 4.84375H3.71045V16.25C3.71076 16.54 3.82034 16.818 4.01513 17.023C4.20992 17.2281 4.47403 17.3434 4.74951 17.3438H14.2495C14.525 17.3434 14.7891 17.2281 14.9839 17.023C15.1787 16.818 15.2883 16.54 15.2886 16.25V4.84375H16.0308C16.1489 4.84375 16.2621 4.79436 16.3456 4.70646C16.4292 4.61855 16.4761 4.49932 16.4761 4.375C16.4761 4.25068 16.4292 4.13145 16.3456 4.04354C16.2621 3.95564 16.1489 3.90625 16.0308 3.90625ZM14.3979 16.25C14.3979 16.2914 14.3823 16.3311 14.3544 16.3604C14.3266 16.3897 14.2889 16.4062 14.2495 16.4063H4.74951C4.71016 16.4062 4.67242 16.3897 4.64459 16.3604C4.61677 16.3311 4.60111 16.2914 4.60107 16.25V4.84375H14.3979V16.25ZM6.08575 1.875C6.08575 1.75068 6.13266 1.63145 6.21618 1.54354C6.29969 1.45564 6.41295 1.40625 6.53106 1.40625H12.4686C12.5867 1.40625 12.6999 1.45564 12.7834 1.54354C12.867 1.63145 12.9139 1.75068 12.9139 1.875C12.9139 1.99932 12.867 2.11855 12.7834 2.20646C12.6999 2.29436 12.5867 2.34375 12.4686 2.34375H6.53106C6.41295 2.34375 6.29969 2.29436 6.21618 2.20646C6.13266 2.11855 6.08575 1.99932 6.08575 1.875Z" fill="#FF4242"/>
</svg>
