<svg width="20" height="20" viewBox="0 0 20 20" fill="none" xmlns="http://www.w3.org/2000/svg">
<path d="M17.7109 6.87499C17.7101 6.58507 17.595 6.30717 17.3906 6.10156L13.8984 2.60937C13.6923 2.40612 13.4145 2.29218 13.125 2.29218C12.8355 2.29218 12.5577 2.40612 12.3516 2.60937L2.97656 11.9844C2.77358 12.1909 2.65874 12.4682 2.65625 12.7578V16.25C2.65625 16.5401 2.77148 16.8183 2.9766 17.0234C3.18172 17.2285 3.45992 17.3437 3.75 17.3437H16.875C16.9993 17.3437 17.1186 17.2944 17.2065 17.2064C17.2944 17.1185 17.3438 16.9993 17.3438 16.875C17.3438 16.7507 17.2944 16.6314 17.2065 16.5435C17.1186 16.4556 16.9993 16.4062 16.875 16.4062H8.63281L17.3906 7.64843C17.595 7.44282 17.7101 7.16491 17.7109 6.87499ZM3.59375 16.25V12.7578C3.59434 12.7166 3.61119 12.6773 3.64062 12.6484L10.625 5.66406L14.3359 9.37499L7.30469 16.4062H3.75C3.70856 16.4062 3.66882 16.3898 3.63951 16.3605C3.61021 16.3312 3.59375 16.2914 3.59375 16.25ZM16.7266 6.98437L15 8.71093L11.2891 4.99999L13.0156 3.27343C13.0295 3.25828 13.0464 3.24618 13.0653 3.2379C13.0841 3.22962 13.1044 3.22535 13.125 3.22535C13.1456 3.22535 13.1659 3.22962 13.1847 3.2379C13.2036 3.24618 13.2205 3.25828 13.2344 3.27343L16.7266 6.76562C16.7417 6.77952 16.7538 6.79643 16.7621 6.81526C16.7704 6.83408 16.7746 6.85443 16.7746 6.87499C16.7746 6.89556 16.7704 6.9159 16.7621 6.93473C16.7538 6.95356 16.7417 6.97046 16.7266 6.98437Z" fill="#646466"/>
</svg>
