<svg width="20" height="20" viewBox="0 0 20 20" fill="none" xmlns="http://www.w3.org/2000/svg">
<path fill-rule="evenodd" clip-rule="evenodd" d="M13.4376 10.0001C13.4376 9.8343 13.3717 9.67533 13.2545 9.55812C13.1373 9.44091 12.9783 9.37506 12.8126 9.37506H3.66839L5.30256 7.97506C5.36494 7.92165 5.41618 7.85649 5.45338 7.78328C5.49057 7.71007 5.51298 7.63025 5.51932 7.54838C5.52567 7.46651 5.51583 7.38419 5.49036 7.30612C5.46489 7.22806 5.4243 7.15577 5.37089 7.09339C5.31749 7.03101 5.25232 6.97977 5.17911 6.94257C5.1059 6.90538 5.02608 6.88297 4.94421 6.87663C4.86234 6.87028 4.78002 6.88012 4.70195 6.90559C4.62389 6.93106 4.5516 6.97165 4.48922 7.02506L1.57256 9.52506C1.50395 9.58373 1.44886 9.65658 1.41109 9.73857C1.37332 9.82057 1.35376 9.90978 1.35376 10.0001C1.35376 10.0903 1.37332 10.1795 1.41109 10.2615C1.44886 10.3435 1.50395 10.4164 1.57256 10.4751L4.48922 12.9751C4.6152 13.0829 4.77887 13.1363 4.94421 13.1235C5.10955 13.1107 5.26304 13.0327 5.37089 12.9067C5.47875 12.7807 5.53214 12.6171 5.51932 12.4517C5.50651 12.2864 5.42854 12.1329 5.30256 12.0251L3.66922 10.6251H12.8126C12.9783 10.6251 13.1373 10.5592 13.2545 10.442C13.3717 10.3248 13.4376 10.1658 13.4376 10.0001Z" fill="#BFC1C1"/>
<path d="M7.8125 6.66675C7.8125 7.25175 7.8125 7.54425 7.95333 7.75508C8.01399 7.84573 8.09185 7.92359 8.1825 7.98425C8.39333 8.12508 8.68583 8.12508 9.27083 8.12508H12.8125C13.3098 8.12508 13.7867 8.32263 14.1383 8.67426C14.49 9.02589 14.6875 9.5028 14.6875 10.0001C14.6875 10.4974 14.49 10.9743 14.1383 11.3259C13.7867 11.6775 13.3098 11.8751 12.8125 11.8751H9.27083C8.68583 11.8751 8.39333 11.8751 8.1825 12.0151C8.09177 12.076 8.0139 12.1541 7.95333 12.2451C7.8125 12.4559 7.8125 12.7484 7.8125 13.3334C7.8125 15.6901 7.8125 16.8692 8.545 17.6009C9.27667 18.3334 10.455 18.3334 12.8117 18.3334H13.645C16.0033 18.3334 17.1808 18.3334 17.9133 17.6009C18.6458 16.8692 18.6458 15.6901 18.6458 13.3334V6.66675C18.6458 4.31008 18.6458 3.13091 17.9133 2.39925C17.1808 1.66675 16.0025 1.66675 13.6458 1.66675H12.8125C10.455 1.66675 9.27667 1.66675 8.545 2.39925C7.8125 3.13091 7.8125 4.31008 7.8125 6.66675Z" fill="#BFC1C1"/>
</svg>
