<svg width="38" height="38" viewBox="0 0 38 38" fill="none" xmlns="http://www.w3.org/2000/svg">
<g filter="url(#filter0_i_13779_10732)">
<circle cx="19" cy="19" r="19" fill="#212026"/>
</g>
<g clip-path="url(#clip0_13779_10732)">
<path d="M10.0001 18.9259C10.0235 15.5669 11.3729 12.3532 13.7545 9.98438C16.1361 7.61553 19.357 6.28334 22.716 6.27783H23.6471V8.29967H22.7301C19.9047 8.30106 17.1943 9.41847 15.1887 11.4086C13.1832 13.3988 12.045 16.1006 12.0219 18.9259H10.0001Z" fill="white"/>
<path d="M13.8794 31.7194V29.6975H14.8105C17.6354 29.6942 20.3447 28.5755 22.3489 26.5845C24.353 24.5937 25.4897 21.8919 25.5117 19.067H27.5349C27.5114 22.4272 26.161 25.642 23.778 28.0111C21.3949 30.3801 18.1722 31.7115 14.8119 31.7151L13.8794 31.7194Z" fill="white"/>
<path d="M13.8794 27.841V25.8192H14.8105C16.6072 25.817 18.3307 25.1072 19.6077 23.8434C20.8848 22.5796 21.6125 20.8636 21.6333 19.067H23.6551C23.6328 21.399 22.6914 23.6279 21.0354 25.2699C19.3794 26.9119 17.1425 27.8343 14.8105 27.8368L13.8794 27.841Z" fill="white"/>
<path d="M13.8794 18.9259C13.901 16.5922 14.843 14.3613 16.5005 12.7183C18.1581 11.0753 20.3972 10.153 22.7311 10.152H23.6622V12.1738H22.7311C20.9332 12.1741 19.2079 12.8831 17.9294 14.1471C16.6508 15.4111 15.9221 17.1282 15.9012 18.9259H13.8794Z" fill="white"/>
<path d="M13.8794 23.9629V21.9411H14.8105C15.579 21.9406 16.3168 21.6399 16.8666 21.1029C17.4165 20.566 17.7347 19.8356 17.7535 19.0673V18.9925C17.7561 17.6745 18.2819 16.4116 19.2153 15.4811C20.1486 14.5507 21.4132 14.0289 22.7311 14.0304H23.6622V16.0523H22.7311C21.9615 16.0513 21.2221 16.3513 20.6708 16.8883C20.1195 17.4253 19.8002 18.1567 19.781 18.926V19.0009C19.7795 20.3179 19.2556 21.5804 18.3243 22.5114C17.3929 23.4425 16.1302 23.9661 14.8133 23.9672L13.8794 23.9629Z" fill="white"/>
</g>
<defs>
<filter id="filter0_i_13779_10732" x="0" y="0" width="40" height="42" filterUnits="userSpaceOnUse" color-interpolation-filters="sRGB">
<feFlood flood-opacity="0" result="BackgroundImageFix"/>
<feBlend mode="normal" in="SourceGraphic" in2="BackgroundImageFix" result="shape"/>
<feColorMatrix in="SourceAlpha" type="matrix" values="0 0 0 0 0 0 0 0 0 0 0 0 0 0 0 0 0 0 127 0" result="hardAlpha"/>
<feOffset dx="2" dy="4"/>
<feGaussianBlur stdDeviation="2"/>
<feComposite in2="hardAlpha" operator="arithmetic" k2="-1" k3="1"/>
<feColorMatrix type="matrix" values="0 0 0 0 0 0 0 0 0 0 0 0 0 0 0 0 0 0 0.35 0"/>
<feBlend mode="normal" in2="shape" result="effect1_innerShadow_13779_10732"/>
</filter>
<clipPath id="clip0_13779_10732">
<rect width="17.6154" height="25.4444" fill="white" transform="translate(10 6.27783)"/>
</clipPath>
</defs>
</svg>
