<svg width="46" height="46" viewBox="0 0 46 46" fill="none" xmlns="http://www.w3.org/2000/svg">
<g clip-path="url(#clip0_992_187)">
<path d="M19.2405 -5.52349e-05C18.8442 0.0425496 18.4739 0.21773 18.1896 0.497099L9.84057 8.8461H5.3078C4.33296 8.8461 3.53857 9.64048 3.53857 10.6153V14.1538C3.53857 15.1286 4.33296 15.923 5.3078 15.923H5.75011L9.78573 40.1951C9.78459 40.2317 9.78459 40.2682 9.78573 40.3048C10.0741 41.6989 10.6155 43.0312 11.6116 44.121C12.1453 44.7061 12.7939 45.1748 13.5168 45.4981C14.2398 45.8214 15.0216 45.9922 15.8135 45.9999H30.1867C30.9746 45.999 31.7539 45.8367 32.4765 45.5229C33.1992 45.2092 33.85 44.7508 34.3887 44.1759C35.3989 43.0878 35.9509 41.6901 36.2145 40.2499C36.2148 40.2317 36.2148 40.2134 36.2145 40.1951L40.3032 15.923H40.6924C41.6673 15.923 42.4617 15.1286 42.4617 14.1538V10.6153C42.4617 9.64048 41.6673 8.8461 40.6924 8.8461H37.9271L32.952 2.65379C32.8039 2.46171 32.6096 2.31022 32.3872 2.2134C32.1648 2.11658 31.9215 2.07758 31.68 2.10002C31.4635 2.12678 31.256 2.20241 31.0731 2.32118L25.9866 5.74994L20.7302 0.497099C20.5371 0.305398 20.3024 0.160815 20.0443 0.0745892C19.7863 -0.0116361 19.5118 -0.0371797 19.2423 -5.52349e-05H19.2405ZM19.4617 4.31333L23.9962 8.8461H14.9253L19.4617 4.31156V4.31333ZM31.5703 5.47394L34.279 8.8461H29.081L28.0318 7.79518L31.5703 5.47394ZM9.28857 15.923H10.5058L12.6059 18.0249L10.0617 20.5124L9.28857 15.923ZM12.9933 15.923H14.6511L13.8213 16.7528L12.9951 15.923H12.9933ZM17.0838 15.923H20.0703L21.6732 17.5259L18.1347 21.0644L15.0386 17.9683L17.0838 15.923ZM22.6127 15.923H23.2213L22.9453 16.2556L22.6109 15.923H22.6127ZM25.7637 15.923H28.7501L30.7953 17.9683L27.6992 21.0644L24.1607 17.4711L25.7637 15.923ZM31.1828 15.923H32.8423L32.0108 16.7528L31.1846 15.923H31.1828ZM35.3299 15.923H36.7665L35.9933 20.6787L33.2829 17.9683L35.3316 15.923H35.3299ZM22.8887 18.7432L26.4837 22.2816L22.8904 25.8201L19.352 22.2816L22.8904 18.7432H22.8887ZM13.8231 19.2403L16.8627 22.2816L13.3242 25.8201L10.4492 22.9451L10.3943 22.6691L13.8231 19.2403ZM32.0108 19.2403L35.5493 22.7788L32.5097 25.8749L28.9713 22.2816L32.0126 19.2403H32.0108ZM18.1347 23.5537L21.6732 27.0922L18.1347 30.6306L14.5963 27.0922L18.1347 23.5537ZM27.6992 23.5537L31.2925 27.0922L27.754 30.6306L24.1625 27.0922L27.701 23.5537H27.6992ZM35.1087 25.7653L34.7213 28.0865L33.7252 27.0904L35.1087 25.7635V25.7653ZM10.9463 25.9298L12.1087 27.0904L11.279 27.9219L10.9463 25.9298ZM13.326 28.3076L16.8644 31.8461L13.326 35.4394L12.3317 34.4451L11.6116 30.022L13.3277 28.3076H13.326ZM22.8922 28.3076L26.4837 31.9009L22.9453 35.4394L19.3537 31.8461L22.8922 28.3076ZM32.5115 28.3076L34.3922 30.1883L33.6721 34.2222L32.5115 35.3846L28.973 31.8461L32.5115 28.3076ZM18.1365 33.1182L21.675 36.6566L18.1365 40.2499L14.598 36.7115L18.1365 33.1182ZM27.701 33.1182L31.2394 36.6566L27.701 40.1951L24.1625 36.6566L27.701 33.1182ZM13.3808 37.9269L16.9193 41.4654L15.9232 42.4615H15.8117C15.12 42.4615 14.713 42.2315 14.2654 41.7432C13.742 41.1433 13.3803 40.4199 13.2145 39.6413V39.5865L12.9933 38.2596L13.379 37.9269H13.3808ZM22.947 37.9269L26.4855 41.4654L25.4894 42.4615H20.3463L19.3502 41.4654L22.9453 37.9269H22.947ZM32.5115 37.9269L33.0086 38.4259L32.7875 39.5865C32.784 39.6042 32.791 39.6219 32.7875 39.6413C32.6194 40.5083 32.2284 41.2726 31.7932 41.7432C31.3473 42.2209 30.8927 42.4615 30.1885 42.4615H29.9673L28.973 41.4654L32.5115 37.9269Z" fill="#2F3736"/>
</g>
<defs>
<clipPath id="clip0_992_187">
<rect width="46" height="46" fill="white"/>
</clipPath>
</defs>
</svg>
